<?xml version="1.0" encoding="UTF-8"?>
<svg version="1.1" xmlns="http://www.w3.org/2000/svg" width="64" height="64">
<path d="M0 0 C21.12 0 42.24 0 64 0 C64 8.25 64 16.5 64 25 C42.88 25 21.76 25 0 25 C0 16.75 0 8.5 0 0 Z M21 4 C21 8.95 21 13.9 21 19 C20.34 19 19.68 19 19 19 C19 19.66 19 20.32 19 21 C21.75641416 20.50243908 21.75641416 20.50243908 24 19 C24.07313567 16.46950598 24.09247527 13.96695163 24.0625 11.4375 C24.05798828 10.72658203 24.05347656 10.01566406 24.04882812 9.28320312 C24.03700864 7.52209987 24.01907263 5.76103964 24 4 C23.01 4 22.02 4 21 4 Z M28.3125 5.5 C27.879375 5.995 27.44625 6.49 27 7 C28.25398831 10.59759738 28.25398831 10.59759738 30.5625 13.5625 C32.29446732 15.29446732 32.58987682 16.62128554 33 19 C32.01 19 31.02 19 30 19 C29.67 18.01 29.34 17.02 29 16 C28.34 16 27.68 16 27 16 C27.33 17.32 27.66 18.64 28 20 C29.65 20.33 31.3 20.66 33 21 C33.99 19.35 34.98 17.7 36 16 C34.7934375 14.63875 34.7934375 14.63875 33.5625 13.25 C31.58857329 10.89690092 30.36122533 9.13061954 30 6 C30.99 6 31.98 6 33 6 C33 6.66 33 7.32 33 8 C33.66 8 34.32 8 35 8 C34.34 6.68 33.68 5.36 33 4 C29.99740483 3.66781808 29.99740483 3.66781808 28.3125 5.5 Z M38 4 C38 9.61 38 15.22 38 21 C38.99 21 39.98 21 41 21 C41 18.36 41 15.72 41 13 C41.99 13 42.98 13 44 13 C44 12.34 44 11.68 44 11 C43.01 11 42.02 11 41 11 C41 9.35 41 7.7 41 6 C42.32 6 43.64 6 45 6 C45 5.34 45 4.68 45 4 C42.69 4 40.38 4 38 4 Z " fill="#FFFFFF" transform="translate(0,30)"/>
<path d="M0 0 C10.56 0 21.12 0 32 0 C32.495 8.415 32.495 8.415 33 17 C38.61 17.33 44.22 17.66 50 18 C50 21.3 50 24.6 50 28 C33.5 28 17 28 0 28 C0 18.76 0 9.52 0 0 Z " fill="#FFFFFF" transform="translate(7,0)"/>
<path d="M0 0 C16.5 0 33 0 50 0 C50 2.31 50 4.62 50 7 C33.5 7 17 7 0 7 C0 4.69 0 2.38 0 0 Z " fill="#FFFFFF" transform="translate(7,57)"/>
<path d="M0 0 C3.15731688 1.57865844 4.66599489 2.4113715 7.015625 4.75 C7.54414062 5.2759375 8.07265625 5.801875 8.6171875 6.34375 C9.15601563 6.8903125 9.69484375 7.436875 10.25 8 C10.80429687 8.5465625 11.35859375 9.093125 11.9296875 9.65625 C16 13.7466133 16 13.7466133 16 16 C10.72 16 5.44 16 0 16 C0 10.72 0 5.44 0 0 Z " fill="#FFFFFF" transform="translate(41,0)"/>
</svg>
